HIERARCHY
ROOT Hips
{
   OFFSET 0.00000 0.00000 0.00000
   CHANNELS 6 Xposition Yposition Zposition Zrotation Xrotation Yrotation
   JOINT Spine
   {
      OFFSET 0.000000 9.512400 0.000000
      CHANNELS 3 Zrotation Xrotation Yrotation
      JOINT Spine1
      {
         OFFSET -0.000000 20.525920 0.102128
         CHANNELS 3 Zrotation Xrotation Yrotation
         JOINT HEad
         {
            OFFSET 0.000000 6.987328 0.009072
            CHANNELS 3 Zrotation Xrotation Yrotation
            End Site
            {
               OFFSET -0.232000 10.219360 2.011160
            }
         }
         JOINT LeftShoulder1
         {
            OFFSET 7.192000 -0.289800 -0.176000
            CHANNELS 3 Zrotation Xrotation Yrotation
            JOINT LeftArm
            {
               OFFSET 8.226160 -0.002704 0.257696
               CHANNELS 3 Zrotation Xrotation Yrotation
               JOINT LeftForeArm
               {
                  OFFSET 26.213519 0.079312 -1.139472
                  CHANNELS 3 Zrotation Xrotation Yrotation
                  JOINT LeftHand
                  {
                     OFFSET 22.051441 0.068288 0.817728
                     CHANNELS 3 Zrotation Xrotation Yrotation
                     End Site
                     {
                        OFFSET 13.395442 -0.480000 1.202328
                     }
                  }
               }
            }
         }
         JOINT RightShoulder
         {
            OFFSET -7.192000 -0.289800 -0.176000
            CHANNELS 3 Zrotation Xrotation Yrotation
            JOINT RightArm
            {
               OFFSET -8.226160 -0.002704 0.257696
               CHANNELS 3 Zrotation Xrotation Yrotation
               JOINT RightForeArm
               {
                  OFFSET -26.317679 0.079312 -1.139472
                  CHANNELS 3 Zrotation Xrotation Yrotation
                  JOINT RightHand
                  {
                     OFFSET -21.993682 0.068288 0.817728
                     CHANNELS 3 Zrotation Xrotation Yrotation
                     End Site
                     {
                        OFFSET -13.304962 -0.480000 1.202328
                     }
                  }
               }
            }
         }
      }
   }
   JOINT LeftUpLeg
   {
      OFFSET 7.156640 -6.933656 0.081320
      CHANNELS 3 Zrotation Xrotation Yrotation
      JOINT LeftLeg
      {
         OFFSET 0.000000 -35.538158 1.098160
         CHANNELS 3 Zrotation Xrotation Yrotation
         JOINT LeftFoot
         {
            OFFSET -0.202840 -33.673920 -1.168472
            CHANNELS 3 Zrotation Xrotation Yrotation
            JOINT LeftToes
            {
               OFFSET -0.032000 -3.532072 6.799280
               CHANNELS 3 Zrotation Xrotation Yrotation
               End Site
               {
                  OFFSET 0.064000 -0.037960 7.823832
               }
            }
         }
      }
   }
   JOINT RightUpLeg
   {
      OFFSET -7.156640 -6.933656 0.081320
      CHANNELS 3 Zrotation Xrotation Yrotation
      JOINT RightLeg
      {
         OFFSET 0.000000 -35.538158 1.098160
         CHANNELS 3 Zrotation Xrotation Yrotation
         JOINT RightFoot
         {
            OFFSET 0.202840 -33.673920 -1.168472
            CHANNELS 3 Zrotation Xrotation Yrotation
            JOINT RightToes
            {
               OFFSET 0.032000 -3.532072 6.799280
               CHANNELS 3 Zrotation Xrotation Yrotation
               End Site
               {
                  OFFSET -0.064000 -0.109960 7.823832
               }
            }
         }
      }
   }
}
MOTION
Frames: 18
Frame Time: 0.016670
-90.452097 72.826728 14.411977 -6.042285 7.341699 113.275655 6.865748 2.104278 29.989223 4.825895 30.851787 -19.236709 -39.728007 -12.958818 6.419299 55.863735 -70.547999 57.500842 323.884210 -55.286666 331.363212 -0.508399 61.965027 -61.432907 -83.704583 -9.446061 -80.050234 -24.110044 61.959433 61.523510 101.409048 36.094927 194.488667 5.602376 132.211480 65.531936 -15.829961 -21.262872 47.328963 40.653016 -31.682485 -90.610014 -16.421033 -19.908786 67.262228 -9.398699 43.539044 45.140737 -86.226719 -21.021340 -0.563581 -41.813776 -1.299295 -48.338191 -8.526837 12.500329 63.695851 -33.452477 3.734567 34.979608 6.698512 -33.173215 -41.381767
-90.514935 72.269882 17.016366 -8.996021 6.094146 111.038399 6.668633 -1.853219 34.207951 3.958649 30.142403 -19.006571 -40.772377 -12.545026 6.766313 65.762557 -77.598920 64.194004 335.212407 -53.945749 341.756602 -1.567043 65.322563 -61.608422 -83.769326 -8.995106 -82.046773 -24.621468 63.824819 63.389264 99.281171 41.407291 194.020211 6.165797 137.483430 65.132500 -15.681397 -18.869945 45.722936 43.171928 -31.874878 -90.156940 -15.272267 -18.857555 63.588248 -10.920312 47.069972 45.238610 -73.723737 -12.782354 -2.359424 -41.629720 -2.133242 -41.691533 -2.261416 11.669983 54.351596 -34.740364 2.351502 35.943679 6.625539 -34.834959 -37.147879
-90.511778 71.770138 19.430049 -11.899918 5.447264 108.683199 5.988578 -5.649082 37.618865 3.817494 29.582328 -18.169799 -41.047159 -11.497759 7.146042 75.445716 -82.722313 69.854469 346.621117 -53.391271 351.431073 -2.678853 68.324595 -61.107291 -83.320460 -9.144516 -83.081055 -25.415957 65.126687 65.060243 97.928076 45.500801 194.024200 6.731950 141.679816 64.628466 -15.814926 -20.208931 46.216236 45.463167 -32.651409 -89.920144 -14.208203 -18.585283 60.096178 -10.997259 48.460093 46.068977 -81.601513 -17.175858 3.767468 -41.607661 -3.689911 -34.835300 1.910290 10.656728 46.313003 -34.298051 2.123328 37.348991 9.103142 -32.606316 -34.484160
-90.425881 71.335162 21.589367 -15.440396 5.034442 106.893485 3.986322 -9.590468 40.147985 3.605281 28.752190 -17.175228 -40.828890 -10.145847 7.632533 85.062220 -86.281811 74.214773 356.777745 -53.308739 359.214620 -3.985943 71.222610 -60.159732 -83.205084 -9.087447 -85.247912 -26.248899 65.351769 66.282273 97.154141 48.571780 194.390599 7.183409 144.467804 64.012280 -16.069929 -18.898136 45.318640 47.010416 -33.691001 -89.546054 -12.803624 -18.258100 57.601041 -11.135183 49.733281 47.262590 -82.270414 -17.426601 6.063050 -40.780471 -6.960014 -27.187435 2.693804 9.393381 40.666748 -35.036739 3.339434 40.173175 10.209513 -33.260204 -30.315330
-90.329512 71.031574 23.591876 -17.318389 4.929942 105.887589 2.832338 -12.779807 41.335721 3.816422 28.787069 -16.368840 -40.195093 -8.662802 8.216625 92.877138 -88.964505 78.156133 364.954766 -53.972493 366.041640 -5.572653 74.005591 -59.118682 -82.836603 -9.639704 -86.429931 -27.146894 65.681947 67.658768 96.956373 50.581833 194.302175 7.709968 146.238148 63.548558 -16.297330 -19.783254 45.477261 48.055319 -34.193054 -89.366366 -11.722012 -18.370422 55.651931 -11.551897 50.704336 48.191171 -84.195571 -18.912297 9.630360 -40.553838 -9.180693 -20.935425 3.913487 8.835701 37.532333 -34.277072 2.542219 42.298238 9.980244 -34.009530 -28.152703
-90.207127 70.844520 25.404310 -18.202688 4.739402 105.371739 2.799051 -14.926617 41.791274 3.810626 29.485524 -15.575251 -39.332676 -7.181742 8.905468 98.545614 -90.834262 81.865336 370.573962 -55.608422 371.072211 -7.317506 76.716937 -58.051697 -82.650958 -10.304988 -87.867317 -28.275962 65.746096 68.819053 97.451015 51.511231 193.859333 8.261702 146.817034 63.139669 -16.403153 -18.890828 44.714301 47.868100 -34.160761 -89.128894 -11.322287 -18.098331 55.871757 -12.010508 51.651700 48.363637 -83.796763 -19.980837 10.199851 -39.839742 -10.574406 -16.749857 5.308776 8.856761 36.104414 -34.200089 1.567988 43.808908 9.961565 -35.304961 -27.159016
-90.057591 70.788058 26.987910 -18.651539 4.371723 105.477553 3.019555 -16.091145 41.501701 3.563097 30.395541 -14.857910 -37.824867 -4.281360 10.099746 102.349449 -91.880558 84.808451 374.071101 -58.103852 374.472389 -8.853404 79.444703 -56.845738 -82.287141 -11.608473 -88.174696 -30.028568 65.220261 69.380283 98.791877 51.259388 193.445724 8.701733 146.312324 62.551528 -16.395266 -18.991828 44.535162 47.422751 -34.038586 -88.385394 -10.983635 -18.023976 58.156561 -12.961496 52.904634 48.014331 -84.881793 -16.503503 25.254797 -38.888778 -11.925396 -14.601882 5.993920 9.461934 36.035313 -31.826243 1.377838 45.028138 8.538772 -35.138800 -27.727831
-89.945620 71.023778 28.467059 -18.873819 4.473963 105.716787 2.514885 -17.355681 40.701019 2.924696 31.088241 -14.057280 -36.103369 -2.014703 11.298912 104.374422 -92.085683 86.503970 374.883784 -61.577844 376.394376 -9.939547 82.897623 -55.216492 -82.132922 -13.513937 -87.864947 -32.761071 63.693952 69.384087 100.897638 49.814472 193.155947 7.914871 144.789478 60.458717 -16.383640 -18.017209 43.427285 46.978386 -33.806530 -87.480633 -11.083528 -18.519815 60.913833 -11.899286 51.373753 48.538036 -81.322534 -17.436332 14.422108 -36.912651 -13.126830 -14.362243 5.398618 8.828697 36.202854 -29.844778 1.285561 45.481171 8.492253 -34.022600 -28.255360
-89.811267 71.340584 29.672181 -19.474459 5.656482 106.810594 5.107376 -18.545014 40.768730 1.744328 30.640164 -11.996095 -33.931116 -1.036175 12.519526 104.050118 -92.195096 87.611185 371.484427 -66.077354 378.550175 -9.596231 87.964142 -52.229873 -82.014302 -15.750455 -85.981748 -36.899178 59.815969 69.651551 103.585536 47.598758 192.533443 5.835949 141.963774 56.392548 -16.327402 -17.460603 42.686756 45.651338 -34.845289 -85.295635 -12.565640 -20.247165 64.814267 -11.678000 50.317495 48.171545 -79.361764 -16.576423 14.014167 -37.267148 -14.097660 -15.711255 4.021165 11.840152 37.022139 -28.867726 1.913442 45.631910 9.368649 -36.215801 -29.440106
-89.657448 71.741694 30.659582 -19.548326 5.940475 106.979955 5.968197 -18.925054 39.406968 2.324598 31.734575 -10.646797 -32.991296 0.007927 13.876801 103.087205 -91.397999 89.732232 368.051601 -69.763614 378.172466 -10.848323 92.897690 -51.202786 -81.961997 -16.280425 -85.539315 -39.142161 57.534208 71.178255 106.160968 46.067461 191.306249 4.863878 137.167793 54.286982 -17.046089 -17.149254 39.441634 45.634372 -35.123363 -83.472732 -13.358169 -21.053889 68.248152 -12.446583 49.642908 48.213387 -76.939192 -14.981859 9.212085 -37.021732 -14.077509 -17.087011 3.276687 11.515834 38.305357 -26.941304 3.143866 46.699506 9.416539 -38.162313 -28.634682
-89.480504 72.122969 31.452026 -19.153280 6.147072 107.407395 5.384603 -19.136433 38.340840 1.226386 33.042051 -9.876636 -32.762887 0.969462 15.277096 99.611308 -90.245316 94.549489 319.245064 -74.328174 330.989383 -10.851122 97.457907 -49.138560 -82.003094 -16.737534 -85.159393 -40.730467 55.530049 71.707526 108.448623 43.579803 190.824994 5.036596 132.561049 53.699002 -17.735117 -17.353532 37.716509 45.542516 -34.976989 -82.130757 -13.432795 -21.008057 70.615352 -13.546151 48.563478 48.468914 -74.837775 -12.681109 7.798215 -35.847503 -14.238492 -18.759314 2.460111 10.062288 39.151642 -17.814952 4.001745 47.131386 15.806560 -29.499515 -11.474994
-89.269789 72.528938 32.060503 -18.182602 6.027410 108.000549 6.370878 -18.999168 36.748498 1.251571 33.203578 -9.126027 -33.187401 1.910559 16.710363 99.134595 -89.154002 95.814474 321.546701 -74.170219 333.917894 -11.959883 99.870493 -48.071575 -81.870875 -17.381493 -86.181749 -43.197026 54.396743 72.052840 110.420929 40.285357 189.993856 4.824801 129.080945 52.917765 -18.103208 -17.019479 36.126660 44.642817 -34.264829 -81.060426 -13.096696 -20.363050 72.166058 -14.307651 46.714300 49.386267 -71.905520 -10.165034 5.455173 -35.139698 -13.399461 -20.863663 1.823471 10.882750 39.331549 -19.867198 4.647414 46.720782 13.356342 -38.666988 -18.875245
-89.048356 72.908653 32.555131 -16.761911 6.326759 108.314950 7.911184 -18.761476 35.328214 0.868423 33.217597 -8.698528 -34.025789 2.593504 18.131232 98.892704 -88.271125 96.838873 323.177340 -74.242906 337.178080 -13.121591 101.978474 -47.014555 -81.675948 -17.471390 -87.887869 -45.900125 53.130505 72.494993 112.350806 37.058035 189.221566 4.223938 125.449374 51.652705 -18.515524 -17.155408 34.742290 43.109162 -32.648916 -80.320142 -12.512970 -19.258104 72.811934 -15.359480 44.671329 50.135245 -67.390560 -7.081818 4.141465 -34.352081 -12.262240 -24.193346 1.879386 12.758483 38.315575 -15.943487 4.878561 44.829226 21.222892 -29.454129 -0.718528
-88.791035 73.315500 32.909178 -17.082260 5.526249 109.213038 6.814843 -18.151627 33.365238 0.762668 32.219324 -8.687765 -34.569309 2.721763 19.395031 99.674631 -86.633150 97.291339 325.407260 -75.207479 339.877125 -13.548125 103.827434 -45.360297 -81.631791 -18.953632 -88.471256 -48.193945 51.813330 72.439777 113.407389 33.586311 189.086861 3.971710 121.877554 50.698322 -18.530561 -16.624341 33.757578 43.004616 -33.301987 -79.180723 -12.267584 -18.768998 73.081043 -16.442393 42.164971 51.145665 -63.461419 -5.522105 2.989977 -33.533763 -12.805581 -24.723879 -0.590266 12.587105 40.087330 -16.099509 7.154851 45.508639 16.867509 -38.999629 -7.381432
-88.502644 73.701032 33.204331 -15.712837 5.200192 110.420677 8.349665 -17.535918 31.797929 0.112092 32.372324 -8.793567 -34.955925 2.589984 20.497855 100.606870 -85.208673 98.746210 326.928780 -76.403787 343.238917 -14.542064 105.924862 -44.572643 -81.667595 -20.106171 -88.950838 -50.126239 50.721220 72.191179 114.202771 29.892750 189.009598 3.584204 118.453512 49.636108 -18.432766 -16.331660 33.270914 41.539903 -32.411071 -78.408167 -11.976644 -17.879767 72.741692 -17.707431 39.470396 51.979334 -58.086927 -3.840728 1.878009 -32.728709 -11.477201 -27.151605 -0.981821 14.973979 40.073417 -14.323674 7.067987 44.118996 23.291184 -23.840065 1.684641
-88.210744 74.046148 33.436250 -14.472899 4.517018 111.285679 9.036960 -17.431182 30.179922 0.054969 32.820572 -8.902489 -35.094215 1.938688 21.449506 102.464551 -83.323151 100.322140 328.534858 -77.820505 346.396295 -15.579038 108.457093 -44.004115 -81.962045 -20.721964 -89.562645 -51.046682 50.111387 72.141264 114.649616 26.436584 189.001265 3.388477 114.697796 48.831273 -18.105763 -15.688625 33.146669 40.784569 -31.807860 -77.866376 -12.077966 -16.770720 71.950838 -19.237066 36.640922 52.642829 -52.530910 -2.189138 0.329472 -31.834576 -10.599283 -28.598195 -2.009727 16.173437 41.071249 -14.174452 7.692391 43.383572 23.518208 -29.619143 -0.834242
-87.924880 74.356717 33.594429 -12.531718 3.841880 111.023618 8.314610 -18.609924 28.627087 0.725858 34.965309 -8.974790 -34.929710 0.729911 22.246876 104.631709 -81.103483 102.588909 330.113069 -79.715664 349.419446 -17.007075 111.229173 -44.165601 -82.296731 -20.970153 -90.253143 -50.933875 50.548721 73.177124 114.602692 23.619161 187.896018 3.381950 110.686310 48.324466 -17.689502 -15.371161 33.516626 40.166990 -30.311498 -77.823838 -12.610659 -14.701024 70.823181 -20.943991 33.771683 53.253592 -46.574462 -0.382765 -0.996592 -30.463303 -9.316831 -29.541350 -2.518827 16.889241 42.720463 -14.257835 8.645496 43.120569 21.077344 -28.476022 0.162861
-87.675513 74.639663 33.638873 -13.222013 3.193049 111.272114 6.764367 -19.167782 27.261334 1.039876 35.279522 -9.264855 -34.505146 -0.670231 22.865467 108.220010 -78.630449 104.777622 332.006507 -82.082714 351.954457 -17.761755 114.088283 -43.806651 -82.805669 -20.993283 -91.076946 -50.339129 50.021573 72.970838 114.235269 20.780664 188.608092 3.815589 106.371160 48.442294 -17.180144 -14.912890 34.424054 40.004828 -31.274582 -76.471256 -13.479318 -14.114501 70.076238 -22.491668 31.069171 54.504534 -41.419674 0.857560 -2.449985 -30.236083 -10.271179 -28.977737 -3.426711 15.131044 46.025875 -15.273730 10.508420 44.291857 19.882022 -28.330824 -0.677190
